<?xml version="1.0" encoding="utf-8" ?>
<svg baseProfile="full" height="200mm" version="1.1" viewBox="0,0,200,200" width="200mm" xmlns="http://www.w3.org/2000/svg" xmlns:ev="http://www.w3.org/2001/xml-events" xmlns:xlink="http://www.w3.org/1999/xlink"><defs /><rect fill="#1a1a1a" height="200" width="200" x="0" y="0" /><text alignment-baseline="middle" fill="#e1ed5e" style="dominant-baseline: central; font-size:9.0px; font-family:Arial;" text-anchor="middle" x="100.0" y="100.0">2023</text><line stroke="#e1ed5e" stroke-width="0.3" x1="100.0" x2="100.0" y1="15.0" y2="10.0" /><path d="M 100.0 14.0 a86.0,86.0 0 0,1 42.46469731375804,11.215312516191453" fill="none" id="id1" stroke="none" /><text fill="#e1ed5e" style="font-size:6.75px; font-family:Arial;" text-anchor="middle"><textPath startOffset="22.20632615414155" xlink:href="#id1">January</textPath></text><line stroke="#e1ed5e" stroke-width="0.3" x1="143.23703022742887" x2="145.7803849466894" y1="26.81831364943548" y2="22.513508569990506" /><path d="M 143.74570117128098 25.957352633546492 a86.0,86.0 0 0,1 28.547481713284135,27.462654790039103" fill="none" id="id2" stroke="none" /><text fill="#e1ed5e" style="font-size:6.75px; font-family:Arial;" text-anchor="middle"><textPath startOffset="19.985693538727396" xlink:href="#id2">February</textPath></text><line stroke="#e1ed5e" stroke-width="0.3" x1="172.23445277983987" x2="176.4835382374775" y1="55.19839476539836" y2="52.563006222186495" /><path d="M 173.08426987136738 54.67131705675599 a86.0,86.0 0 0,1 12.851231095245387,41.99856678651699" fill="none" id="id3" stroke="none" /><text fill="#e1ed5e" style="font-size:6.75px; font-family:Arial;" text-anchor="middle"><textPath startOffset="22.20632615414155" xlink:href="#id3">March</textPath></text><line stroke="#e1ed5e" stroke-width="0.3" x1="184.98032266829074" x2="189.97916517819016" y1="98.17113171792111" y2="98.06355123074" /><path d="M 185.9800911702706 98.14961562048488 a86.0,86.0 0 0,1 -9.607161424134198,41.387399972396054" fill="none" id="id4" stroke="none" /><text fill="#e1ed5e" style="font-size:6.75px; font-family:Arial;" text-anchor="middle"><textPath startOffset="21.466115282336823" xlink:href="#id4">April</textPath></text><line stroke="#e1ed5e" stroke-width="0.3" x1="174.80103733775053" x2="179.2010983576182" y1="140.37084112569926" y2="142.7455964860345" /><path d="M 175.68104954172406 140.8457921977663 a86.0,86.0 0 0,1 -30.038265399797805,32.042727171017184" fill="none" id="id5" stroke="none" /><text fill="#e1ed5e" style="font-size:6.75px; font-family:Arial;" text-anchor="middle"><textPath startOffset="22.206326154141568" xlink:href="#id5">May</textPath></text><line stroke="#e1ed5e" stroke-width="0.3" x1="143.8653032363475" x2="146.44561519142675" y1="172.8068346515853" y2="177.08958963109032" /><path d="M 144.38136562736335 173.6633856474863 a86.0,86.0 0 0,1 -40.68145358897372,12.25698825130547" fill="none" id="id6" stroke="none" /><text fill="#e1ed5e" style="font-size:6.75px; font-family:Arial;" text-anchor="middle"><textPath startOffset="21.466115282336833" xlink:href="#id6">June</textPath></text><line stroke="#e1ed5e" stroke-width="0.3" x1="102.19456741930631" x2="102.32365962044197" y1="184.97166512339345" y2="189.96999836594603" /><path d="M 102.22038585953345 185.97133177190398 a86.0,86.0 0 0,1 -42.740103519485714,-10.115201625700543" fill="none" id="id7" stroke="none" /><text fill="#e1ed5e" style="font-size:6.75px; font-family:Arial;" text-anchor="middle"><textPath startOffset="22.20632615414155" xlink:href="#id7">July</textPath></text><line stroke="#e1ed5e" stroke-width="0.3" x1="58.666819895761336" x2="56.23545636021788" y1="174.27360380694188" y2="178.64263932499728" /><path d="M 58.180547188652646 175.14741091055294 a86.0,86.0 0 0,1 -31.652253787137756,-30.449443065178592" fill="none" id="id8" stroke="none" /><text fill="#e1ed5e" style="font-size:6.75px; font-family:Arial;" text-anchor="middle"><textPath startOffset="22.20632615414155" xlink:href="#id8">August</textPath></text><line stroke="#e1ed5e" stroke-width="0.3" x1="26.63291911575756" x2="22.317208475507996" y1="142.92168965132927" y2="145.44649492493687" /><path d="M 25.769776987707644 143.4266507060508 a86.0,86.0 0 0,1 -11.730757126820373,-40.83630448921669" fill="none" id="id9" stroke="none" /><text fill="#e1ed5e" style="font-size:6.75px; font-family:Arial;" text-anchor="middle"><textPath startOffset="21.46611528233685" xlink:href="#id9">September</textPath></text><line stroke="#e1ed5e" stroke-width="0.3" x1="15.007084014347285" x2="10.007500721073583" y1="101.09737516637583" y2="101.16192664675087" /><path d="M 14.007167355692545 101.11028546245083 a86.0,86.0 0 0,1 10.666146001902534,-42.60595125391555" fill="none" id="id10" stroke="none" /><text fill="#e1ed5e" style="font-size:6.75px; font-family:Arial;" text-anchor="middle"><textPath startOffset="22.20632615414155" xlink:href="#id10">October</textPath></text><line stroke="#e1ed5e" stroke-width="0.3" x1="26.266209847984243" x2="21.928928074336255" y1="57.711370442889674" y2="55.22380399835377" /><path d="M 25.398753493254645 57.213857153982495 a86.0,86.0 0 0,1 29.58750427330803,-30.492523968695096" fill="none" id="id11" stroke="none" /><text fill="#e1ed5e" style="font-size:6.75px; font-family:Arial;" text-anchor="middle"><textPath startOffset="21.46611528233685" xlink:href="#id11">November</textPath></text><path d="M 81.78341655067845 89.55222093294921 l -9.07109606676657 -5.202556663011373 a31.457121003620067,31.457121003620067 0 0,0 0.27343776705843736,-0.467393780057346 l 8.980198625237808 5.357929855422611" fill="#ff0400" stroke="none" /><path d="M 81.96595687620814 89.24020034530311 l -10.199299818023178 -6.0852922390617685 a32.876720861109476,32.876720861109476 0 0,0 0.29414364066459203,-0.4834948053898032 l 10.093040379072368 6.259954817658646" fill="#ff1c02" stroke="none" /><path d="M 82.15384107792192 88.93136811851018 l -8.937353047968925 -5.5431687745701135 a31.516796069498,31.516796069498 0 0,0 0.28991310739860593,-0.45857291312126097 l 8.840612344324356 5.69618933540559" fill="#ff0500" stroke="none" /><path d="M 82.34701348167596 88.62581576622439 l -30.055512198768646 -19.365387983185308 a56.754049634546696,56.754049634546696 0 0,0 0.5361997335503648,-0.8166689807464239 l 29.71771582986036 19.879875027909396" fill="#82ff25" stroke="none" /><path d="M 82.7489923806493 88.02491185347247 l -8.517348937230667 -5.912466480141099 a31.36834088932923,31.36834088932923 0 0,0 0.31172270863300006,-0.44090966471851617 l 8.414313608793789 6.0582026451914" fill="#ff0200" stroke="none" /><path d="M 82.95767976084542 87.72973835380427 l -9.81805894076121 -7.068882075348652 a33.09807320028469,33.09807320028469 0 0,0 0.3368712236505417,-0.45949197047584717 l 9.694925104597035 7.2368364894960004" fill="#ff2003" stroke="none" /><path d="M 83.17141714833178 87.43820079747576 l -17.789304933770303 -13.278936111268816 a43.198862904973836,43.198862904973836 0 0,0 0.4499347939180012,-0.5920614480323739 l 17.558094199628194 13.583182335182217" fill="#ffc111" stroke="none" /><path d="M 83.39014120810768 87.1503855733568 l -8.966311926908968 -6.9364618046019215 a32.33619212687097,32.33619212687097 0 0,0 0.3443741627763835,-0.4373202149822348 l 8.845583683538614 7.089774413537204" fill="#ff1302" stroke="none" /><path d="M 83.6137871275137 86.86637796730984 l -8.817215910551953 -7.067037518123039 a32.29983697651648,32.29983697651648 0 0,0 0.35145530737241476,-0.4308426502952612 l 8.694262111103145 7.217764338026383" fill="#ff1202" stroke="none" /><path d="M 83.84228863543731 86.58626213691792 l -14.194478334905607 -11.783909688175992 a39.44840759358901,39.44840759358901 0 0,0 0.43823308601991673,-0.5187297480167824 l 13.989534635398567 12.02649838582189" fill="#ff870c" stroke="none" /><path d="M 84.07557802195018 86.31012108654704 l -13.873933589135316 -11.927118682885494 a39.295961120186426,39.295961120186426 0 0,0 0.44536945119681365,-0.5091342726122237 l 13.666572274360657 12.16416851170066" fill="#ff850c" stroke="none" /><path d="M 84.31358615837235 86.03803664274999 l -9.781604764432238 -8.706286132377995 a34.09500706324364,34.09500706324364 0 0,0 0.39397001367318735,-0.43503152907718734 l 9.630291110143006 8.873370448724739" fill="#ff3104" stroke="none" /><path d="M 84.5562425177563 85.77008943001954 l -9.07149690903077 -8.358496298570993 a33.33517395677012,33.33517395677012 0 0,0 0.39245449190061854,-0.4186430888614581 l 8.926275095159697 8.513408804310501" fill="#ff2403" stroke="none" /><path d="M 84.80347519578584 85.50635884689758 l -15.195964096537992 -14.493106379793721 a41.999225160926514,41.999225160926514 0 0,0 0.5034621842754453,-0.5188620364712598 l 14.944237648559428 14.752532611815106" fill="#ffaf10" stroke="none" /><path d="M 85.05521093208273 85.24692304244772 l -8.615280302145804 -8.50476328108888 a33.10595114610575,33.10595114610575 0 0,0 0.4038361659543905,-0.4021019651190715 l 8.4676083360241 8.651801096858062" fill="#ff2003" stroke="none" /><path d="M 85.31137513191541 84.99185889309783 l -8.468842140173896 -8.653061739494436 a33.10771508843381,33.10771508843381 0 0,0 0.4107197402972698,-0.3951120647531456 l 8.318639156264199 8.797556891009895" fill="#ff2003" stroke="none" /><path d="M 85.57189188830299 84.74124197986013 l -43.28432433509105 -45.776274060419595 a84.0,84.0 0 0,0 1.0591684648205755,-0.98438165570141 l 42.48994798647562 46.514560302195655" fill="#4dd2ff" stroke="none" /><path d="M 86.10567301691215 84.25364557470407 l -8.193621316134328 -9.285780119292822 a33.383906600748595,33.383906600748595 0 0,0 0.4341596151457787,-0.37649893997452677 l 8.032567902341775 9.425444052687029" fill="#ff2503" stroke="none" /><path d="M 86.37877921826538 84.01681056812374 l -14.062455182902712 -16.50093546438951 a42.68025638619375,42.68025638619375 0 0,0 0.5632624465755426,-0.47171610044623413 l 13.776335199368058 16.740552722229555" fill="#ffb911" stroke="none" /><path d="M 86.65592168130627 83.78471172551755 l -7.661061653086931 -9.309471978994525 a33.05645612027362,33.05645612027362 0 0,0 0.44247892718622067,-0.3577871867711374 l 7.49967932733621 9.439965263029796" fill="#ff1f03" stroke="none" /><path d="M 86.93701828274178 83.55741782278169 l -13.504474809701215 -16.998296531742547 a42.70974262553348,42.70974262553348 0 0,0 0.5795660107522305,-0.4523604643158468 l 13.209876243789559 17.228235385281614" fill="#ffb911" stroke="none" /><path d="M 87.22198572758235 83.33499621200491 l -7.403129778673387 -9.655114102581802 a33.16665766978568,33.16665766978568 0 0,0 0.456047617577591,-0.34348561070080014 l 7.235836007337406 9.781116302788456" fill="#ff2103" stroke="none" /><path d="M 87.51073957382395 83.11751280151077 l -7.624571849925197 -10.306594006202134 a33.820295468644765,33.820295468644765 0 0,0 0.47099541962400643,-0.3421982028525724 l 7.4460311139474085 10.436311443871375" fill="#ff2c04" stroke="none" /><path d="M 87.80319425747018 82.90503203632743 l -10.58894410774356 -14.841398978733706 a39.2316444941995,39.2316444941995 0 0,0 0.5531080132217435,-0.3874875100663569 l 10.331904954938157 15.021471331564005" fill="#ff840c" stroke="none" /><path d="M 88.09926311788651 82.69761687909137 l -10.75952600180399 -15.643186041899044 a39.98622314534835,39.98622314534835 0 0,0 0.5704611782266162,-0.3851779340224457 l 10.488660129170835 15.826075888220155" fill="#ff900d" stroke="none" /><path d="M 88.39885842347998 82.49532879139004 l -6.692177162500629 -10.09765807327398 a33.113956155569085,33.113956155569085 0 0,0 0.4778390772319434,-0.3107998277903169 l 6.5173710594843985 10.211356825223831" fill="#ff2003" stroke="none" /><path d="M 88.70189139769569 82.29822771554957 l -11.65289897514258 -18.25765456614644 a42.65945532052011,42.65945532052011 0 0,0 0.6223828609733053,-0.3897360904439721 l 11.336896961797033 18.45553499791334" fill="#ffb911" stroke="none" /><path d="M 89.00827224532344 82.1063720568725 l -6.349788224577398 -10.336932513625877 a33.13144609221166,33.13144609221166 0 0,0 0.4885120243435124,-0.29432302866862214 l 6.170914134016236 10.44470215175312" fill="#ff2003" stroke="none" /><line stroke="#e1ed5e" stroke-width="0.3" x1="56.762969772571076" x2="54.21961505331055" y1="26.818313649435495" y2="22.513508569990535" /><path d="M 56.25429882871897 25.957352633546506 a86.0,86.0 0 0,1 42.265352541879196,-11.944610805530505" fill="none" id="id12" stroke="none" /><text fill="#e1ed5e" style="font-size:6.75px; font-family:Arial;" text-anchor="middle"><textPath startOffset="22.20632615414155" xlink:href="#id12">December</textPath></text><path d="M 89.3179101791058 81.91981866633112 l -6.118808060316469 -10.356508991344134 a33.02901037354219,33.02901037354219 0 0,0 0.4919801127752778,-0.2849866364384214 l 5.939631215075871 10.460299785172603" fill="#ff1f03" stroke="none" /><path d="M 89.63071344664047 81.73862282372117 l -10.31974829137296 -18.174135215885624 a41.899674534369886,41.899674534369886 0 0,0 0.6302427552918525,-0.35072941097056515 l 10.00538144700906 18.349080024416374" fill="#ffad10" stroke="none" /><path d="M 89.94658935756843 81.56283822128135 l -8.74811098382119 -16.043345209251918 a39.27343348384423,39.27343348384423 0 0,0 0.5963108955316594,-0.31852862883891353 l 8.470655041761225 16.191552564592584" fill="#ff840c" stroke="none" /><path d="M 90.26544431104013 81.39251694778311 l -5.634043644260228 -10.769404888701606 a33.15411574085993,33.15411574085993 0 0,0 0.507951858709046,-0.26019267098800214 l 5.447831297962419 10.864790085002113" fill="#ff2103" stroke="none" /><path d="M 90.58718382345135 81.22770947309562 l -5.36441094777832 -10.698422122413662 a32.96800487658632,32.96800487658632 0 0,0 0.5094792786567931,-0.24999926939267353 l 5.179460402111101 10.789176551941166" fill="#ff1e03" stroke="none" /><path d="M 90.91171255644093 81.06846463323043 l -9.470718393730117 -19.728165656411377 a42.88367032881247,42.88367032881247 0 0,0 0.6682129195729488,-0.31373492549653786 l 9.12972726285756 19.888265564547922" fill="#ffbc11" stroke="none" /><path d="M 91.23893434514133 80.91482961587045 l -5.091355651451379 -11.091046902526374 a33.20382004798521,33.20382004798521 0 0,0 0.5214863612874727,-0.23397572934711916 l 4.899687171697132 11.177042962390022" fill="#ff2203" stroke="none" /><path d="M 91.56875222667455 80.76684994638697 l -4.844540468833596 -11.051243692856982 a33.06646425068577,33.06646425068577 0 0,0 0.5232630068070955,-0.22403391153282035 l 4.653593704236192 11.132997132352589" fill="#ff1f03" stroke="none" /><path d="M 91.90106846888425 80.62456947434976 l -7.04925098028216 -16.86423352285242 a39.27824695358689,39.27824695358689 0 0,0 0.6260506109360279,-0.25538176339549384 l 6.757916499757751 16.983076172431492" fill="#ff850c" stroke="none" /><path d="M 92.23578459929587 80.48803036053334 l -6.72726714296819 -16.906052379519604 a39.1953491385002,39.1953491385002 0 0,0 0.6290234530185713,-0.24405132730552803 l 6.435260524949943 17.019346410715684" fill="#ff830c" stroke="none" /><path d="M 93.25333710446033 80.11325718540243 l -3.8339086065874532 -11.300987705237652 a32.93361547552115,32.93361547552115 0 0,0 0.5384131389718874,-0.17750634677869997 l 3.638812645373157 11.365307776275586" fill="#ff1d02" stroke="none" /><path d="M 93.59665428221793 80.00007090966166 l -3.374042522454464 -10.538336390222081 a32.06529244154034,32.06529244154034 0 0,0 0.5271146656727541,-0.1637770924872381 l 3.192142484070981 10.594853617591845" fill="#ff0e01" stroke="none" /><path d="M 93.94186890950719 79.89281104454417 l -3.239320434362397 -10.751439196026965 a32.228830823480365,32.228830823480365 0 0,0 0.5325580746230767,-0.15546830568643374 l 3.053772142015899 10.805605830632096" fill="#ff1101" stroke="none" /><path d="M 94.98787191387505 79.60689891045804 l -2.6729285996054886 -10.875480873639363 a32.19913530284747,32.19913530284747 0 0,0 0.539375861896676,-0.12765283997577365 l 2.485329050746279 10.919879625756009" fill="#ff1101" stroke="none" /><path d="M 95.33964822691252 79.52364482259891 l -2.696320921724696 -11.846922196801291 a33.14988526900536,33.14988526900536 0 0,0 0.5574820560107265,-0.12184398487799203 l 2.491996141560449 11.891579679775152" fill="#ff2103" stroke="none" /><path d="M 95.692805502759 79.44645832069477 l -2.4776838751877484 -11.823282842099248 a33.0801049064006,33.0801049064006 0 0,0 0.5583190646275886,-0.11199355197123506 l 2.2737984010930234 11.864180350147693" fill="#ff2003" stroke="none" /><path d="M 96.04723909329186 79.375362276772 l -2.2495763392152397 -11.737794954488905 a32.95141933410347,32.95141933410347 0 0,0 0.5579850229424593,-0.10196819639222661 l 2.0471961951698874 11.774778632231868" fill="#ff1d03" stroke="none" /><path d="M 96.40284397218896 79.31037775812273 l -1.9594878392673925 -11.27030989719537 a32.43938275306219,32.43938275306219 0 0,0 0.550960971376154,-0.09091328109283434 l 1.7651976617523528 11.302369441227832" fill="#ff1502" stroke="none" /><path d="M 96.75951476605007 79.25152402106235 l -1.5776274827240913 -10.101377900467407 a31.223832156402885,31.223832156402885 0 0,0 0.5317433775723384,-0.07836515144164473 l 1.4035151247231041 10.12703753607002" fill="#ff0000" stroke="none" /><path d="M 97.11714578562143 79.19881850522333 l -1.4058894440049963 -10.144169393124344 a31.241127760416106,31.241127760416106 0 0,0 0.5333087698530223,-0.06923878439110497 l 1.2310659456441162 10.166866500679586" fill="#ff0000" stroke="none" /><path d="M 97.47563105711357 79.15227682838746 l -2.364236769840396 -19.52525752175583 a40.66787474016316,40.66787474016316 0 0,0 0.6956787954363182,-0.07816761848875324 l 2.02779127089436 19.56306109371518" fill="#ff9a0e" stroke="none" /><path d="M 97.83486435360386 79.11191278185805 l -1.1608024602543752 -11.198810140688428 a32.2588103687254,32.2588103687254 0 0,0 0.5528159657935818,-0.05249653709234468 l 0.967861367370557 11.217132222295954" fill="#ff1202" stroke="none" /><path d="M 98.19473922651362 79.07773832637324 l -1.0478119477900445 -12.143727974589618 a33.18884896119244,33.18884896119244 0 0,0 0.5695993699707361,-0.04421187371219464 l 0.8386223884569741 12.159965110490274" fill="#ff2103" stroke="none" /><path d="M 98.55514903715128 79.0497635885617 l -0.8468463092131141 -12.279211377752588 a33.308378476913866,33.308378476913866 0 0,0 0.5723298593373333,-0.034524500080275425 l 0.6353544010361579 12.29196914721317" fill="#ff2303" stroke="none" /><path d="M 98.91598698831166 79.02799685794201 l -0.6068845568928904 -11.741173488500019 a32.756847526120715,32.756847526120715 0 0,0 0.5633540850515993,-0.0242592119491219 l 0.40468963945196706 11.749880426973332" fill="#ff1a02" stroke="none" /><path d="M 99.27714615592234 79.0124445844662 l -0.8238398770712381 -23.919614200324457 a44.933797350930675,44.933797350930675 0 0,0 0.7732322639132023,-0.019970308119491697 l 0.4119809779631567 23.93025130058631" fill="#ffdb14" stroke="none" /><path d="M 99.63851952072746 79.00311137660856 l -0.41701151893971844 -24.222454378364784 a45.22604372816353,45.22604372816353 0 0,0 0.7784919982122482,-0.0067007264073080264 l 5.933669381539856e-15 24.226043728163532" fill="#ffdf14" stroke="none" /></svg>