<?xml version="1.0" encoding="utf-8" ?>
<svg baseProfile="full" height="200mm" version="1.1" viewBox="0,0,200,200" width="200mm" xmlns="http://www.w3.org/2000/svg" xmlns:ev="http://www.w3.org/2001/xml-events" xmlns:xlink="http://www.w3.org/1999/xlink"><defs /><rect fill="#1a1a1a" height="200" width="200" x="0" y="0" /><text alignment-baseline="middle" fill="#e1ed5e" style="dominant-baseline: central; font-size:9.0px; font-family:Arial;" text-anchor="middle" x="100.0" y="100.0">2024</text><line stroke="#e1ed5e" stroke-width="0.3" x1="100.0" x2="100.0" y1="15.0" y2="10.0" /><path d="M 100.0 14.0 a86.0,86.0 0 0,1 42.35913384403234,11.155469271406648" fill="none" id="id13" stroke="none" /><text fill="#e1ed5e" style="font-size:6.75px; font-family:Arial;" text-anchor="middle"><textPath startOffset="22.145653131862478" xlink:href="#id13">January</textPath></text><path d="M 100.36049292484886 79.00309439819443 l 0.20710772032681593 -12.062986409318752 a33.064764180008986,33.064764180008986 0 0,0 0.5674333706602809,0.014615070803473696 l -0.4141544050578382 12.057653621165233" fill="#ff6109" stroke="none" /><path d="M 100.72087961077811 79.0123766808444 l 0.4129317829068519 -12.022058311237048 a33.029147879052715,33.029147879052715 0 0,0 0.5664880102543006,0.0243274326082076 l -0.6192455537619889 12.013198310203009" fill="#ff6108" stroke="none" /><path d="M 101.08105385017728 79.02784411241856 l 0.6177836203946311 -11.984837193434908 a33.000749108066906,33.000749108066906 0 0,0 0.565500283352261,0.03401909278539127 l -0.8234282558793544 11.972466122824825" fill="#ff6008" stroke="none" /><path d="M 101.44090949804482 79.04949213459386 l 0.7319827183272651 -10.64286807635421 a31.66801010454196,31.66801010454196 0 0,0 0.5420221288258847,0.0419559407586458 l -0.9145738419283833 10.628734368600512" fill="#ff4c07" stroke="none" /><path d="M 101.80034050326958 79.07731436759882 l 0.8934620458233155 -10.383383296267533 a31.42175240084576,31.42175240084576 0 0,0 0.5370133645653125,0.050855723955025085 l -1.0715749737736409 10.366515816807324" fill="#ff4806" stroke="none" /><path d="M 102.15924093988457 79.11130261209362 l 1.2174767848996841 -11.777983487998439 a32.840740887517704,32.840740887517704 0 0,0 0.5602694488013515,0.06277936034842976 l -1.4194821353018323 11.75534836714304" fill="#ff5e08" stroke="none" /><path d="M 102.51750503828377 79.15144685158666 l 1.4143268577834076 -11.712655273900625 a32.797737665581465,32.797737665581465 0 0,0 0.5583770765358622,0.07229309165608964 l -1.6151817562100617 11.686650586044138" fill="#ff5d08" stroke="none" /><path d="M 102.87502721639298 79.19773525538626 l 1.6410403452256033 -11.873750454718888 a32.986616006012504,32.986616006012504 0 0,0 0.5602617990621169,0.08233919078748007 l -1.8446272498954022 11.843830190632525" fill="#ff6008" stroke="none" /><path d="M 103.23170211078529 79.25015418208739 l 1.8308771153091434 -11.755544462907736 a32.89726593090881,32.89726593090881 0 0,0 0.5572522656985731,0.09169564826134352 l -2.032406884060787 11.722382816150724" fill="#ff5f08" stroke="none" /><path d="M 103.58742460773223 79.30868818359171 l 1.846594712776188 -10.650667589844153 a31.809562069880982,31.809562069880982 0 0,0 0.5372260384351731,0.09790048014380792 l -2.029155484762415 10.617398935768978" fill="#ff4e07" stroke="none" /><path d="M 103.94208987418118 79.37332000966035 l 2.2417737976630985 -11.729907792812545 a32.94220610221467,32.94220610221467 0 0,0 0.5545326491188782,0.11092206041638297 l -2.442802932312934 11.689696335733302" fill="#ff5f08" stroke="none" /><path d="M 104.9986988182912 79.60360301121754 l 2.880791092530474 -11.754610729895143 a33.10247209169139,33.10247209169139 0 0,0 0.5507537395233847,0.13999944688109967 l -3.0821501252792527 11.703426051178777" fill="#ff6209" stroke="none" /><path d="M 105.3480935250658 79.69241777938227 l 3.0175710450473447 -11.458208764795362 a32.848893750453726,32.848893750453726 0 0,0 0.5440693431013305,0.1482885188311711 l -3.213821789083368 11.404719751820048" fill="#ff5e08" stroke="none" /><path d="M 105.69591212413111 79.78721728523813 l 3.2551339622084 -11.551322080060546 a33.00120572730994,33.00120572730994 0 0,0 0.5439541400877708,0.15833712250697152 l -3.452948114677775 11.493741263251058" fill="#ff6008" stroke="none" /><path d="M 106.04205211174951 79.88797359093562 l 3.4249372642313722 -11.40050225215036 a32.90385008580023,32.90385008580023 0 0,0 0.539559475792044,0.16715690483103474 l -3.6201373728950466 11.340028759512679" fill="#ff5f08" stroke="none" /><path d="M 106.38641147887787 79.99465700312896 l 3.6189973386301038 -11.336457618415086 a32.90010138911149,32.90010138911149 0 0,0 0.5365493645168863,0.17637443334124964 l -3.8130694407947328 11.272662263671815" fill="#ff5f08" stroke="none" /><path d="M 106.72888874123014 80.10723608172694 l 2.4251049148499533 -7.169391767849989 a28.568441858727898,28.568441858727898 0 0,0 0.4632090264078256,0.1611281444200392 l -2.547819713302797 7.126705190861359" fill="#ff1d02" stroke="none" /><path d="M 108.07796709384702 80.6158196554323 l 4.5503569668527675 -10.919200221157086 a32.82939905470698,32.82939905470698 0 0,0 0.5183370109416132,0.22124724774708174 l -4.737129052964811 10.839478323750603" fill="#ff5e08" stroke="none" /><path d="M 108.4095320186766 80.7573450057729 l 4.75343853562197 -10.876797611816698 a32.87012654525458,32.87012654525458 0 0,0 0.5151008615467906,0.2303980635514266 l -4.939452800024393 10.79359579735542" fill="#ff5e08" stroke="none" /><path d="M 108.73861861582097 80.90454125486305 l 5.028420640077646 -10.988006584010542 a33.08392745856321,33.08392745856321 0 0,0 0.5143940811751097,0.24076240326974904 l -5.216303435124261 10.90006794917026" fill="#ff6109" stroke="none" /><path d="M 109.06512990194946 81.05736502329252 l 5.1503128707384 -10.762173050080126 a32.93105575489297,32.93105575489297 0 0,0 0.5078278517715005,0.24840404987961517 l -5.334300971771968 10.67217525010329" fill="#ff5f08" stroke="none" /><path d="M 109.71004243097381 81.37971332152246 l 5.4858541581416995 -10.519848685220643 a32.86430833231921,32.86430833231921 0 0,0 0.4979900225134731,0.26515163758885646 l -5.665632996441732 10.424126579909213" fill="#ff5e08" stroke="none" /><path d="M 110.02825361518725 81.54914285379988 l 5.66751457483071 -10.427588472218341 a32.86824851449696,32.86824851449696 0 0,0 0.49342411282499005,0.2736940377404244 l -5.8456828758118 10.32876151904477" fill="#ff5e08" stroke="none" /><path d="M 110.34350942703115 81.72400993836675 l 5.8343250760515994 -10.308693375151849 a32.84518924272399,32.84518924272399 0 0,0 0.48831026076805145,0.28192606050249086 l -6.010427804680048 10.207020417373187" fill="#ff5e08" stroke="none" /><line stroke="#e1ed5e" stroke-width="0.3" x1="143.13028292997686" x2="145.6673583964461" y1="26.7553504044142" y2="22.446841604673864" /><path d="M 143.63769802327073 25.89364864446614 a86.0,86.0 0 0,1 29.32050498858742,28.57503671076993" fill="none" id="id14" stroke="none" /><text fill="#e1ed5e" style="font-size:6.75px; font-family:Arial;" text-anchor="middle"><textPath startOffset="20.669276256404974" xlink:href="#id14">February</textPath></text><path d="M 110.65571695917076 81.90426304109057 l 5.82151002404703 -9.886196724486538 a32.47287516864576,32.47287516864576 0 0,0 0.4779191435727565,0.286976713983114 l -5.990361924177221 9.784806009967504" fill="#ff5808" stroke="none" /><path d="M 110.96478420261332 82.08984904055464 l 6.2216636887500885 -10.162620059394833 a32.91586948264899,32.91586948264899 0 0,0 0.47937398189857466,0.2991648190511188 l -6.395201799438375 10.054319443502168" fill="#ff5f08" stroke="none" /><path d="M 111.5731344415666 82.4767994020092 l 6.322781203331281 -9.573496611708054 a32.472985641043266,32.472985641043266 0 0,0 0.4625138353242299,0.3111999497427837 l -6.486191326752511 9.463546987908153" fill="#ff5808" stroke="none" /><path d="M 111.8722381534696 82.67804972795209 l 6.781570080169159 -9.894513416644033 a32.99546116263957,32.99546116263957 0 0,0 0.46445810898389467,0.32422783170529895 l -6.950423280326814 9.776640769133607" fill="#ff6008" stroke="none" /><path d="M 114.13192950727249 84.46653392183569 l 9.191685951213662 -10.103273006763928 a34.65881459259709,34.65881459259709 0 0,0 0.43665192870239533,0.40415850637215756 l -9.363767651230022 9.943996754259395" fill="#ff790b" stroke="none" /><path d="M 115.41159269507618 85.73525988315684 l 8.855542950331479 -8.19655834924702 a33.066656940419605,33.066656940419605 0 0,0 0.3820022380580326,0.41988737656833486 l -8.99494288923139 8.043333397121014" fill="#ff6109" stroke="none" /><path d="M 115.6541949942343 86.00192230759917 l 8.227114114539102 -7.35673617212399 a32.03661967089045,32.03661967089045 0 0,0 0.3630648109446914,0.41310110796696164 l -8.352189989442385 7.2144227863457315" fill="#ff5207" stroke="none" /><path d="M 115.8921839302757 86.27271002978787 l 9.094015221034883 -7.855193753128352 a33.01687071327643,33.01687071327643 0 0,0 0.36681025873286677,0.43210156245604364 l -9.227520043274863 7.697925408222757" fill="#ff6008" stroke="none" /><path d="M 116.1254893667686 86.54754324733833 l 4.546238492568099 -3.7926338430753423 a26.920503010635862,26.920503010635862 0 0,0 0.29298888527509187,0.35739880070924135 l -4.610674197081818 3.714032760667606" fill="#ff0300" stroke="none" /><path d="M 116.7966241395341 87.39550010848427 l 4.755007705028594 -3.5682464288238696 a26.94495423461742,26.94495423461742 0 0,0 0.2744510139614718,0.37234551028213736 l -4.8155607385738906 3.4860946092728575" fill="#ff0300" stroke="none" /><path d="M 117.21940702142032 87.97951657250589 l 9.829163734984192 -6.86151965834408 a32.98719782730604,32.98719782730604 0 0,0 0.3201490224241992,0.4671069914863607 l -9.945502494223717 6.691777931787671" fill="#ff6008" stroke="none" /><path d="M 117.42321728460499 88.27688183743584 l 9.736996384958951 -6.551485716142334 a32.735887852630526,32.735887852630526 0 0,0 0.30970575650236254,0.4689339888812974 l -9.848026580382038 6.383371848921978" fill="#ff5c08" stroke="none" /><path d="M 117.62189284568427 88.57770195909679 l 10.091429975331126 -6.541142988811588 a33.025951544351514,33.025951544351514 0 0,0 0.304282730526316,0.4783829924055489 l -10.202230397483332 6.366946321727367" fill="#ff6008" stroke="none" /><path d="M 117.81537515405839 88.88188828441811 l 10.201549369910543 -6.366521310153366 a33.02514877826296,33.02514877826296 0 0,0 0.29601861803312474,0.48352416589430325 l -10.30933595239907 6.190460028134508" fill="#ff6008" stroke="none" /><line stroke="#e1ed5e" stroke-width="0.3" x1="172.87174338648825" x2="177.1583165268699" y1="56.24261187166439" y2="53.66864786411523" /><path d="M 173.72905801456457 55.72781907015455 a86.0,86.0 0 0,1 12.242430191666344,42.057860355516425" fill="none" id="id15" stroke="none" /><text fill="#e1ed5e" style="font-size:6.75px; font-family:Arial;" text-anchor="middle"><textPath startOffset="22.145653131862474" xlink:href="#id15">March</textPath></text><path d="M 118.00360718960297 89.18935116829356 l 10.155237115350962 -6.097928104106332 a32.845402822692506,32.845402822692506 0 0,0 0.286108937030876,0.48587552446652144 l -10.258419762511606 5.922701411346254" fill="#ff5e08" stroke="none" /><path d="M 118.53625476483649 90.13048839642627 l 10.21588529655477 -5.439383508387752 a32.57372910274319,32.57372910274319 0 0,0 0.25856084784872896,0.4958245182756287 l -10.307754213378445 5.263212747007625" fill="#ff5a08" stroke="none" /><path d="M 118.70294669586156 90.45014215332178 l 10.461214100463868 -5.3415704587984285 a32.746036583548175,32.746036583548175 0 0,0 0.25133376278609193,0.5028358873852715 l -10.551367776461696 5.161202715249407" fill="#ff5c08" stroke="none" /><path d="M 118.8641267826498 90.77261029715802 l 11.084737196981017 -5.422100426307911 a33.33979626084252,33.33979626084252 0 0,0 0.24706494445607927,0.5162707108439332 l -11.17618139939701 5.231017213398874" fill="#ff6509" stroke="none" /><path d="M 119.0197475246899 91.09779779509293 l 12.101097418112444 -5.663924611905294 a34.36101046822411,34.36101046822411 0 0,0 0.24546120826246762,0.5363770387485922 l -12.196543091229962 5.455358590942018" fill="#ff740a" stroke="none" /><path d="M 119.16976305983485 91.42560881287824 l 10.982573037499188 -4.912365226983947 a33.03113638220784,33.03113638220784 0 0,0 0.22707509200320766,0.5195922488309608 l -11.065282011519365 4.723110908377136" fill="#ff6108" stroke="none" /><path d="M 119.31412917781788 91.75594674310238 l 15.691441706455437 -6.6977433936857524 a38.061099302059944,38.061099302059944 0 0,0 0.2513376572250577,0.6031188810787057 l -15.80410520821698 6.427392003165769" fill="#ffa90f" stroke="none" /><path d="M 119.58574465831526 92.42381321644754 l 11.179117301115136 -4.32432272686314 a32.98634350743198,32.98634350743198 0 0,0 0.1997547974905758,0.5298733326413481 l -11.251702782420153 4.131781114027634" fill="#ff6008" stroke="none" /><path d="M 119.71291397450082 92.76114493625339 l 11.11528683015516 -4.081687286798102 a32.84102075092473,32.84102075092473 0 0,0 0.18978955685312174,0.5308751686527562 l -11.183716557052225 3.8902771617644296" fill="#ff5e08" stroke="none" /><path d="M 119.83427380445688 93.10060997987247 l 11.354235923930515 -3.949592649171595 a33.021562107757234,33.021562107757234 0 0,0 0.18164151551902588,0.5369908650498366 l -11.420362861021905 3.754100109647597" fill="#ff6008" stroke="none" /><path d="M 119.94978838288452 93.4421083053983 l 11.35254568028615 -3.731807255319384 a32.95017484448818,32.95017484448818 0 0,0 0.17202389448878727,0.5388623993752537 l -11.414934290552194 3.5363758222527437" fill="#ff5f08" stroke="none" /><path d="M 120.05942366710727 93.78553927170692 l 11.436601969553323 -3.5430885245945642 a32.97285851010963,32.97285851010963 0 0,0 0.16286029641277547,0.5421089593173551 l -11.495738585969725 3.3462419616864856" fill="#ff6008" stroke="none" /><path d="M 120.16314734710363 94.1308016681162 l 20.312069709252494 -5.912547461087571 a42.155103246099884,42.155103246099884 0 0,0 0.1962852172454918,0.6965469901641442 l -20.41057341857257 5.562992547020413" fill="#ffe215" stroke="none" /><path d="M 120.26092885502905 94.47779374421319 l 27.4992562893924 -7.495044585434915 a49.50236463536569,49.50236463536569 0 0,0 0.2164208475507849,0.8217852091207143 l -27.62386661774791 7.021878871941402" fill="#bdff1f" stroke="none" /><path d="M 120.35273937422433 94.82641323984039 l 11.6205557803129 -2.953899837525646 a32.990114298600226,32.990114298600226 0 0,0 0.13480777659395973,0.5500617317699082 l -11.66955108342315 2.753982281147643" fill="#ff6008" stroke="none" /><path d="M 120.43855184770803 95.1765574152323 l 11.594166034588268 -2.7361916148854566 a32.91265841829479,32.91265841829479 0 0,0 0.12505107900202664,0.5509981275554819 l -11.639427975147962 2.5367591533909484" fill="#ff5f08" stroke="none" /><path d="M 120.51834098615036 95.52812308129327 l 11.695721546087425 -2.5490280751680885 a32.97027345600796,32.97027345600796 0 0,0 0.11577635425679247,0.5540317666307962 l -11.737755611168584 2.347879857251888" fill="#ff6008" stroke="none" /><path d="M 120.592083275326 95.88100663000786 l 11.73467913815058 -2.347264476486635 a32.96713603991876,32.96713603991876 0 0,0 0.10623849184094446,0.5558846814253813 l -11.773243922273682 2.1454772300279394" fill="#ff6008" stroke="none" /><path d="M 120.65975698304385 96.23510406497455 l 11.762455370949871 -2.1435111965911875 a32.956169813259564,32.956169813259564 0 0,0 0.09664817774792896,0.5574410059962784 l -11.797518366190033 1.9412771576743164" fill="#ff5f08" stroke="none" /><path d="M 120.7213421655516 96.59031103205396 l 12.227585315744596 -2.012044510563852 a33.39202024555734,33.39202024555734 0 0,0 0.08821616465296955,0.5664110590786715 l -12.26032297253583 1.801845269553739" fill="#ff6609" stroke="none" /><path d="M 120.82617615685814 97.30363454192243 l 11.784713835222535 -1.5257671441600182 a32.8830739102424,32.8830739102424 0 0,0 0.0676732310366648,0.5604314321271671 l -11.809169152518864 1.3232420351094383" fill="#ff5e08" stroke="none" /><path d="M 120.86939407059847 97.66154086499901 l 11.932384891496277 -1.3370486156652945 a33.00706076437781,33.00706076437781 0 0,0 0.05826156065465505,0.5636277487065892 l -11.953578844632597 1.132016344675774" fill="#ff6008" stroke="none" /><path d="M 120.9064616781168 98.02013634271609 l 11.909579380325393 -1.1278495496598113 a32.96286444054849,32.96286444054849 0 0,0 0.04851251073156262,0.5637889107263925 l -11.927185513754697 0.9232395915577567" fill="#ff6008" stroke="none" /><path d="M 120.93736805541906 98.37931529534042 l 11.880830031629001 -0.9196513840686693 a32.91637029085103,32.91637029085103 0 0,0 0.03877241018188362,0.5637423346702611 l -11.894866402975952 0.715565625244074" fill="#ff5f08" stroke="none" /><path d="M 120.96210409425399 98.7389718711861 l 11.995611854759888 -0.7216262214503696 a33.01729787321346,33.01729787321346 0 0,0 0.02917850328408216,0.5660551686113965 l -12.006231947500543 0.5155992594622425" fill="#ff6008" stroke="none" /><path d="M 120.98066250479742 99.09900007780936 l 32.3224335815043 -1.3880643728618405 a53.35222458091507,53.35222458091507 0 0,0 0.03144049898110843,0.9153558232415177 l -32.34149876748226 0.8330022850562029" fill="#8fff24" stroke="none" /><path d="M 120.99303781780057 99.45929381324524 l 30.601207692978477 -0.7881785602144176 a51.61135635204012,51.61135635204012 0 0,0 0.01520954328905823,0.8858796461005893 l -30.610228667866203 0.26275199814476174" fill="#a4ff21" stroke="none" /><line stroke="#e1ed5e" stroke-width="0.3" x1="184.99686870605535" x2="189.99668451229388" y1="99.2704041080226" y2="99.22748670261217" /><path d="M 185.99683186730306 99.26182062694052 a86.0,86.0 0 0,1 -10.086455211305974,41.156179273409016" fill="none" id="id16" stroke="none" /><text fill="#e1ed5e" style="font-size:6.75px; font-family:Arial;" text-anchor="middle"><textPath startOffset="21.40746469413373" xlink:href="#id16">April</textPath></text><path d="M 120.99922638620191 99.81974689727618 l 12.094801623079052 -0.1038193254977098 a33.09524719689443,33.09524719689443 0 0,0 0.0,0.5681448564430719 l -12.094801623079052 -0.10381932549770832" fill="#ff6209" stroke="none" /><path d="M 120.99303781780057 100.54070618675476 l 11.97493363650523 0.3084318124624025 a32.97890503266652,32.97890503266652 0 0,0 -0.019434489156216445,0.5658139468954699 l -11.967874460352169 -0.5139520239219831" fill="#ff6008" stroke="none" /><path d="M 120.98066250479742 100.90099992219065 l 58.50449790199144 2.5124348692727776 a79.55842043409692,79.55842043409692 0 0,0 -0.07030846802869374,1.363965496698475 l -58.45274784450618 -3.5163721593479838" fill="#47ffff" stroke="none" /><path d="M 120.96210409425399 101.26102812881392 l 18.456266824141505 1.1102831811868141 a39.489632603876494,39.489632603876494 0 0,0 -0.04651509931746483,0.6763193354149151 l -18.434487763658975 -1.4269459407560727" fill="#ffbd11" stroke="none" /><path d="M 120.9064616781168 101.97986365728391 l 11.947779215193 1.1314671137379908 a33.001235186615936,33.001235186615936 0 0,0 -0.05825127778655768,0.5635282712856131 l -11.926595544924776 -1.3363999073065351" fill="#ff6008" stroke="none" /><path d="M 120.86939407059847 102.33845913500097 l 11.913135863072716 1.334891721880802 a32.98769127068157,32.98769127068157 0 0,0 -0.06788853313472203,0.5622144423559721 l -11.888465243678331 -1.5391998411601826" fill="#ff6008" stroke="none" /><path d="M 120.82617615685814 102.69636545807757 l 11.879401146677724 1.5380263123339104 a32.97855152099449,32.97855152099449 0 0,0 -0.07750820731559957,0.560810777465381 l -11.851248422806915 -1.7417253979993765" fill="#ff6008" stroke="none" /><path d="M 120.77682067341334 103.0534771498775 l 11.858717142877312 1.7428230426502238 a32.986100468157474,32.986100468157474 0 0,0 -0.08714379210240818,0.5595256580359145 l -11.827051858636636 -1.9461368826175889" fill="#ff6008" stroke="none" /><path d="M 120.7213421655516 103.40968896794604 l 11.732049066620297 1.9305042093441025 a32.889820091316835,32.889820091316835 0 0,0 -0.09645359871292028,0.556318725829722 l -11.697180650415142 -2.1316159680944127" fill="#ff5e08" stroke="none" /><path d="M 120.65975698304385 103.76489593502545 l 11.852495214671155 2.1599194555022088 a33.047692512180895,33.047692512180895 0 0,0 -0.1064980897056383,0.5572430071490949 l -11.813670832683357 -2.3630650276846183" fill="#ff6108" stroke="none" /><path d="M 120.592083275326 104.11899336999214 l 16.736879830077505 3.347844709672917 a38.06842730442791,38.06842730442791 0 0,0 -0.13367871308308485,0.6397010343414261 l -16.676943406170054 -3.6346621952997524" fill="#ffaa0f" stroke="none" /><path d="M 120.43855184770803 104.8234425847677 l 14.957742691996662 3.5299865474894347 a36.36863271294607,36.36863271294607 0 0,0 -0.14861344430086948,0.6063935672097807 l -14.894941721179498 -3.786235939307315" fill="#ff910d" stroke="none" /><path d="M 120.35273937422433 105.17358676015961 l 11.748337182539874 2.9863813702864546 a33.12195942261163,33.12195942261163 0 0,0 -0.14480687101688713,0.5498552756235878 l -11.695340830718257 -3.1876171502828456" fill="#ff6209" stroke="none" /><path d="M 120.26092885502905 105.52220625578681 l 11.853462410610653 3.230713890017952 a33.28584890672658,33.28584890672658 0 0,0 -0.1549876427941632,0.5499964674664681 l -11.79625627574191 -3.4337182813874287" fill="#ff6409" stroke="none" /><path d="M 120.16314734710363 105.8691983318838 l 11.65078472616326 3.3913736334301636 a33.13433969595892,33.13433969595892 0 0,0 -0.16365788797688924,0.5447638822317046 l -11.590850518182743 -3.590875119252592" fill="#ff6209" stroke="none" /><path d="M 120.05942366710727 106.21446072829308 l 11.728925692129183 3.6336511610911923 a33.278889145683635,33.278889145683635 0 0,0 -0.17374002238591685,0.5442381455704505 l -11.66482095396601 -3.8344583403530264" fill="#ff6409" stroke="none" /><path d="M 119.83427380445688 106.89939002012753 l 23.121275626411737 8.042779881037907 a45.48018984418482,45.48018984418482 0 0,0 -0.2628318145647357,0.7351873632981034 l -22.97980364180306 -8.438502200716933" fill="#f0ff19" stroke="none" /><path d="M 119.71291397450082 107.23885506374661 l 11.434134575870841 4.198772595526366 a33.18068654912638,33.18068654912638 0 0,0 -0.20093167709618046,0.532995145616921 l -11.36037221496022 -4.394436021337445" fill="#ff6309" stroke="none" /><path d="M 119.58574465831526 107.57618678355244 l 11.373299369267343 4.399436522330344 a33.19454715260026,33.19454715260026 0 0,0 -0.2101393848745781,0.5296885230901298 l -11.29610130942664 -4.594026062634038" fill="#ff6309" stroke="none" /><path d="M 119.4528033332814 107.91128576633889 l 11.242710652415285 4.572312547227919 a33.13691002040758,33.13691002040758 0 0,0 -0.21882061960716628,0.5250898282076765 l -11.162564188271634 -4.764634884876873" fill="#ff6209" stroke="none" /><path d="M 119.31412917781788 108.2440532568976 l 11.201566470247654 4.781282639833391 a33.17931669139729,33.17931669139729 0 0,0 -0.22809376895555816,0.5219231810518071 l -11.11783881927513 -4.972867890661043" fill="#ff6309" stroke="none" /><path d="M 119.16976305983485 108.57439118712176 l 11.04761086915428 4.941455821835451 a33.102383713773385,33.102383713773385 0 0,0 -0.23647008606642814,0.5167298141110458 l -10.961156318232796 -5.130374618161185" fill="#ff6209" stroke="none" /><path d="M 118.70294669586154 109.54985784667822 l 15.79235784155328 8.063690438901757 a38.7319392535082,38.7319392535082 0 0,0 -0.3074429403101069,0.5895623759158131 l -15.651606832268223 -8.333599057922074" fill="#ffb310" stroke="none" /><line stroke="#e1ed5e" stroke-width="0.3" x1="174.33088141563837" x2="178.70328620479359" y1="141.23008692659167" y2="143.65538615756765" /><path d="M 175.20536237346943 141.71514677278685 a86.0,86.0 0 0,1 -30.301960400862466,31.631185727798858" fill="none" id="id17" stroke="none" /><text fill="#e1ed5e" style="font-size:6.75px; font-family:Arial;" text-anchor="middle"><textPath startOffset="22.145653131862474" xlink:href="#id17">May</textPath></text><path d="M 118.18653347947321 110.5 l 5.774921875739072 3.3341526995070105 a27.668305399014024,27.668305399014024 0 0,0 -0.2410124025542008,0.40929174988099926 l -5.716835763055107 -3.4327956176815593" fill="#ff0f01" stroke="none" /><path d="M 117.423217284605 111.72311816256416 l 10.094004207832185 6.791696512124352 a33.16618520574695,33.16618520574695 0 0,0 -0.3218861397911959,0.469641497639187 l -9.975928331225669 -6.963972744833582" fill="#ff6309" stroke="none" /><path d="M 117.21940702142032 112.02048342749411 l 9.897077764088898 6.908928925128468 a33.07002266613032,33.07002266613032 0 0,0 -0.32894421077269526,0.4627012272639035 l -9.777018454786242 -7.077807379101875" fill="#ff6109" stroke="none" /><path d="M 117.01052211995028 112.31430620078461 l 13.20884276605137 9.562183525713596 a37.306712758790354,37.306712758790354 0 0,0 -0.37999192928911857,0.5155320316437731 l -13.042748817178424 -9.787521866626248" fill="#ff9f0e" stroke="none" /><path d="M 116.79662413953412 112.60449989151573 l 8.293154644557083 6.223337853444538 a31.368526799726872,31.368526799726872 0 0,0 -0.32690190778232076,0.42792509097927717 l -8.185100759420457 -6.364783857664693" fill="#ff4806" stroke="none" /><path d="M 116.57777611688842 112.89097897827486 l 9.328008135797123 7.253515546348654 a32.81631175801565,32.81631175801565 0 0,0 -0.34962431251429194,0.44173889753662454 l -9.20211739264127 -7.412574387799961" fill="#ff5d08" stroke="none" /><path d="M 116.35404254752997 113.17365903436017 l 9.895460095007678 7.971082189671644 a33.7066235391779,33.7066235391779 0 0,0 -0.3668455248859646,0.447491892112889 l -9.757167750883086 -8.139776363483024" fill="#ff6b09" stroke="none" /><path d="M 115.6541949942343 113.99807769240083 l 4.405790847564566 3.939685343346772 a26.910339550065213,26.910339550065213 0 0,0 -0.31088144028435777,0.34171316128507917 l -4.337511706438328 -4.014736080189523" fill="#ff0300" stroke="none" /><path d="M 115.41159269507618 114.26474011684316 l 8.895090884567745 8.233163326759732 a33.12054537592354,33.12054537592354 0 0,0 -0.38978807491109496,0.41394142786699656 l -8.75244697592039 -8.384646214571225" fill="#ff6209" stroke="none" /><path d="M 115.16444852881244 114.52719865689866 l 8.85544046583776 8.483311648105067 a33.26317260593163,33.26317260593163 0 0,0 -0.39854539348815715,0.40894268365169595 l -8.708508271198795 -8.6340770238245" fill="#ff6409" stroke="none" /><path d="M 114.91283532996324 114.78537596483092 l 8.559902449315521 8.486741329538903 a33.053908425747295,33.053908425747295 0 0,0 -0.40295560134645436,0.3995115570726633 l -8.412954927839102 -8.632432896840228" fill="#ff6108" stroke="none" /><path d="M 114.65682725009322 115.03919595460226 l 14.230413699177628 14.601658086379349 a41.38904345282705,41.38904345282705 0 0,0 -0.5130812759279546,0.4915202559709673 l -13.977659937384361 -14.843790472655895" fill="#ffd714" stroke="none" /><path d="M 114.13192950727249 115.5334660781643 l 7.9096630362803175 8.694105245893176 a32.75373282724116,32.75373282724116 0 0,0 -0.41914635775061426,0.37480325768530004 l -7.759251651706326 -8.828604033461863" fill="#ff5c08" stroke="none" /><path d="M 113.86319453409587 115.77377054828091 l 7.90760784628413 8.997406149520392 a32.97846314307648,32.97846314307648 0 0,0 -0.42843816530074375,0.3700746829505725 l -7.751990201220531 -9.131824964935682" fill="#ff6008" stroke="none" /><path d="M 113.59037401385872 116.0094264158162 l 7.748782531100465 9.128046337599816 a32.97350661484167,32.97350661484167 0 0,0 -0.4346625201747954,0.36261093363804936 l -7.590945676763775 -9.259719455149735" fill="#ff6008" stroke="none" /><path d="M 113.31354834802062 116.24036423190432 l 7.698672111856518 9.391128189889551 a33.1434278918605,33.1434278918605 0 0,0 -0.443094849925051,0.35692584606093086 l -7.536326491576214 -9.521902329743885" fill="#ff6209" stroke="none" /><path d="M 113.03279911837588 116.46651593811092 l 7.413146634362583 9.366268604122919 a32.944945817672846,32.944945817672846 0 0,0 -0.4464668549638496,0.3471753268505214 l -7.251269834763503 -9.492144982594233" fill="#ff5f08" stroke="none" /><path d="M 112.16784306229584 117.11559508785304 l 6.908855161724409 9.718170004601212 a32.923720387698495,32.923720387698495 0 0,0 -0.4634482554012516,0.32352287547543723 l -6.741011815149399 -9.83533769588177" fill="#ff5f08" stroke="none" /><path d="M 111.8722381534696 117.32195027204791 l 6.741507291336377 9.836060610446058 a32.92459680205205,32.92459680205205 0 0,0 -0.46894614840015725,0.31552789704527817 l -6.5716648548392165 -9.950338181548457" fill="#ff5f08" stroke="none" /><path d="M 111.5731344415666 117.5232005979908 l 6.663226601322706 10.088974335723762 a33.09073992307614,33.09073992307614 0 0,0 -0.4766868698084337,0.30898266984245526 l -6.489054099257262 -10.201870847270113" fill="#ff6109" stroke="none" /><path d="M 111.27062007382361 117.71928675628689 l 6.503062377161496 10.223894186848682 a33.116840868193805,33.116840868193805 0 0,0 -0.4823008513645918,0.3009914020682418 l -6.3265973970071885 -10.334021385758472" fill="#ff6209" stroke="none" /><path d="M 110.96478420261333 117.91015095944535 l 5.360240543492209 8.75555009007872 a31.266052603799338,31.266052603799338 0 0,0 -0.4601577472184021,0.27631150579869024 l -5.20915003971637 -8.846275596413335" fill="#ff4606" stroke="none" /><line stroke="#e1ed5e" stroke-width="0.3" x1="143.1302829299769" x2="145.66735839644613" y1="173.24464959558577" y2="177.55315839532614" /><path d="M 143.63769802327073 174.10635135553383 a86.0,86.0 0 0,1 -40.68552437913181,11.842963189579606" fill="none" id="id18" stroke="none" /><text fill="#e1ed5e" style="font-size:6.75px; font-family:Arial;" text-anchor="middle"><textPath startOffset="21.407464694133747" xlink:href="#id18">June</textPath></text><path d="M 110.02825361518725 118.45085714620011 l 5.346074163583264 9.836174320111088 a32.19512546683356,32.19512546683356 0 0,0 -0.4878499524143614,0.25975262140280164 l -5.176435395382349 -9.926497409236458" fill="#ff5407" stroke="none" /><path d="M 109.71004243097381 118.62028667847754 l 5.5410279689121715 10.625651742312668 a32.98363325127981,32.98363325127981 0 0,0 -0.5042927031413655,0.25749544745175046 l -5.357808044057223 -10.719205141437254" fill="#ff6008" stroke="none" /><path d="M 109.3889696526874 118.78422872680471 l 5.340850287751148 10.685278269274498 a32.9457043948024,32.9457043948024 0 0,0 -0.508053747576112,0.24851454683743196 l -5.156636290912967 -10.775386566209153" fill="#ff5f08" stroke="none" /><path d="M 109.06512990194946 118.94263497670748 l 5.160603927100929 10.783677399858739 a32.95489569827498,32.95489569827498 0 0,0 -0.5123878751749587,0.2398233975623998 l -4.974727338054464 -10.870677028991672" fill="#ff5f08" stroke="none" /><path d="M 108.73861861582097 119.09545874513695 l 4.938386289230785 10.791265278796827 a32.86756358563242,32.86756358563242 0 0,0 -0.5150606979439086,0.2303800988827183 l -4.752412188431249 -10.874449128589395" fill="#ff5e08" stroke="none" /><path d="M 107.74402155503746 119.51999308798841 l 4.874066810171047 12.28583233772678 a34.21734479767945,34.21734479767945 0 0,0 -0.547848591657265,0.2119196043812107 l -4.662445956020253 -12.367691830246033" fill="#ff720a" stroke="none" /><path d="M 107.407793817531 119.65005319985036 l 4.262150002501779 11.305859255518069 a33.08256496566062,33.08256496566062 0 0,0 -0.5331189940707937,0.195768679090307 l -4.067441856776859 -11.377358783617098" fill="#ff6109" stroke="none" /><path d="M 107.06938296918513 119.77432235084164 l 5.9353550585077794 16.602244454038992 a38.63130626420579,38.63130626420579 0 0,0 -0.626368419110622,0.21788345075501733 l -5.6494808673521355 -16.7016863373626" fill="#ffb110" stroke="none" /><path d="M 106.72888874123015 119.89276391827305 l 8.630474831400946 25.514465304158076 a47.93460665338426,47.93460665338426 0 0,0 -0.7817387075516069,0.25697304047593517 l -8.191213386201605 -25.658859266036032" fill="#d1ff1c" stroke="none" /><path d="M 106.38641147887787 120.00534299687104 l 3.6911375422441233 11.56243577875375 a33.13731508586511,33.13731508586511 0 0,0 -0.5433878500620041,0.16834294496602142 l -3.492109059310495 -11.624095311526416" fill="#ff6209" stroke="none" /><path d="M 106.0420521117495 120.11202640906438 l 11.692562584662086 38.92073804445723 a61.63914208889627,61.63914208889627 0 0,0 -1.0159891371170922,0.295739630630445 l -11.022713435163388 -39.1157213693902" fill="#33ff2f" stroke="none" /><path d="M 105.69591212413111 120.21278271476187 l 10.872802244005266 38.583739437900604 a61.086441319342036,61.086441319342036 0 0,0 -1.0117619257894523,0.2757602119793566 l -10.208858917281118 -38.764700144024104" fill="#38ff2e" stroke="none" /><path d="M 105.3480935250658 120.30758222061773 l 5.224074532207792 19.836661904325897 a41.51302294213596,41.51302294213596 0 0,0 -0.6906871656283308,0.17556997659156776 l -4.882782073354064 -19.923417112752734" fill="#ffd914" stroke="none" /><path d="M 104.9986988182912 120.39639698878246 l 2.8435943729201156 11.60283542047318 a32.946205203004425,32.946205203004425 0 0,0 -0.5504649553343881,0.12990823062055085 l -2.6439972638458484 -11.649939794739955" fill="#ff5f08" stroke="none" /><path d="M 104.64783097203109 120.47920084513623 l 4.941508833316643 21.773199689162364 a43.32690606093658,43.32690606093658 0 0,0 -0.7267316517273341,0.15838778104168783 l -4.567014764970173 -21.85481892833777" fill="#fff216" stroke="none" /><path d="M 104.29559338865022 120.5559693870025 l 2.452259173039148 11.734947870805916 a32.98843511815812,32.98843511815812 0 0,0 -0.5553108452906115,0.1110777214453814 l -2.250451842217578 -11.77531498891416" fill="#ff6008" stroke="none" /><path d="M 103.94208987418118 120.62667999033965 l 2.1877644797460687 11.447308219305226 a32.65449179014733,32.65449179014733 0 0,0 -0.5514959062622581,0.1005009254162151 l -1.9909338399327534 -11.483177318652805" fill="#ff5b08" stroke="none" /><path d="M 103.58742460773223 120.69131181640829 l 2.941273473061779 16.96448377961117 a38.217572405888916,38.217572405888916 0 0,0 -0.6473738230225148,0.1065251162237198 l -2.649622146986192 -17.012474894330563" fill="#ffac0f" stroke="none" /><path d="M 102.875027216393 120.80226474461374 l 1.6308092330544832 11.799723223671446 a32.91188511151224,32.91188511151224 0 0,0 -0.5603204214642103,0.07254469656418555 l -1.4280109896994975 -11.825979516436025" fill="#ff5f08" stroke="none" /><path d="M 102.51750503828377 120.84855314841334 l 1.447316572542087 11.985857436771475 a33.07292440777151,33.07292440777151 0 0,0 -0.5642305449702466,0.06322320943621088 l -1.241350125971041 -12.008936406714657" fill="#ff6109" stroke="none" /><path d="M 102.15924093988457 120.88869738790638 l 1.2391237850857462 11.98739857822307 a33.051271817860126,33.051271817860126 0 0,0 -0.564862661243359,0.053493081305241025 l -1.0331615604573718 -12.006903415033495" fill="#ff6108" stroke="none" /><path d="M 101.80034050326958 120.92268563240118 l 1.0282720742882288 11.950080174188129 a32.99423860144049,32.99423860144049 0 0,0 -0.5647215403400702,0.04371301877095584 l -0.8229815391729228 -11.965970959954138" fill="#ff6008" stroke="none" /><path d="M 101.44090949804482 120.95050786540614 l 0.8311962753491315 12.085411421069443 a33.11396122103212,33.11396122103212 0 0,0 -0.5674402842216638,0.034135798420247665 l -0.6236116389950026 -12.097899197314383" fill="#ff6209" stroke="none" /><path d="M 101.08105385017728 120.97215588758144 l 2.3121477113499886 44.85504790496297 a65.91460062825477,65.91460062825477 0 0,0 -1.1305114831705594,0.04854902737886727 l -1.5418104675786 -44.888129500767675" fill="#35ff62" stroke="none" /><line stroke="#e1ed5e" stroke-width="0.3" x1="101.45913802915013" x2="101.54496967792366" y1="184.9874750549273" y2="189.98673829345242" /><path d="M 101.47630435890484 185.9873277026323 a86.0,86.0 0 0,1 -42.54439059252881,-10.42667462771756" fill="none" id="id19" stroke="none" /><text fill="#e1ed5e" style="font-size:6.75px; font-family:Arial;" text-anchor="middle"><textPath startOffset="22.145653131862474" xlink:href="#id19">July</textPath></text><path d="M 100.36049292484886 120.99690560180557 l 0.20501649065332506 11.941182764866113 a32.942942584864724,32.942942584864724 0 0,0 -0.5655094155021758,0.004854218193046588 l -1.46258864089552e-15 -11.942942584864724" fill="#ff5f08" stroke="none" /><path d="M 100.0 121.0 l 1.4770105195044402e-15 12.060706160607225 a33.060706160607225,33.060706160607225 0 0,0 -0.567530983876465,-0.004871570926196483 l 0.20703805902761133 -12.058928987875463" fill="#ff6108" stroke="none" /><path d="M 99.63950707515114 120.99690560180557 l -0.10492394999906454 6.111294068871532 a27.11219471479008,27.11219471479008 0 0,0 -0.4652797143586614,-0.011983954981106267 l 0.20981697842846983 -6.108592396540378" fill="#ff0600" stroke="none" /><path d="M 98.91894614982273 120.97215588758144 l -0.4590125763294706 8.904721354596276 a29.91654389033282,29.91654389033282 0 0,0 -0.512649394457801,-0.0308397145498337 l 0.611806322919718 -8.895529662221751" fill="#ff3104" stroke="none" /><path d="M 98.55909050195518 120.95050786540614 l -0.39396471889359364 5.728160549342156 a26.741692388030966,26.741692388030966 0 0,0 -0.45770444649720887,-0.035429218884114176 l 0.49223816016603866 -5.720553563462988" fill="#ff0000" stroke="none" /><path d="M 98.19965949673042 120.92268563240118 l -3.26845229148276 37.98436999834308 a59.124731403024,59.124731403024 0 0,0 -1.0104710435851911,-0.09569265841030108 l 3.9200228984529666 -37.92266558442759" fill="#4dff2c" stroke="none" /><path d="M 97.84075906011543 120.88869738790638 l -1.2152890642134209 11.756819274899058 a32.81946390375785,32.81946390375785 0 0,0 -0.5599064593059485,-0.06273868661834668 l 1.4169314251201688 -11.73422482777374" fill="#ff5d08" stroke="none" /><path d="M 97.48249496171623 120.84855314841334 l -1.492019777082744 12.356064098365922 a33.44582030314327,33.44582030314327 0 0,0 -0.5694105963537565,-0.07372160169527882 l 1.7039081953272945 -12.328630900470245" fill="#ff6709" stroke="none" /><path d="M 97.12497278360702 120.80226474461374 l -3.1421361765378006 22.734932120042032 a43.951038282718855,43.951038282718855 0 0,0 -0.7464872351391116,-0.10970791686570726 l 3.5319485172845972 -22.677643129877442" fill="#fffa17" stroke="none" /><path d="M 96.76829788921471 120.74984581791261 l -1.8517969953118736 11.889865099434623 a33.033205898454476,33.033205898454476 0 0,0 -0.559554975445738,-0.09207455827395385 l 2.055629473810675 -11.856324542665" fill="#ff6108" stroke="none" /><path d="M 96.41257539226777 120.69131181640829 l -2.0748637869592437 11.967262949586132 a33.14579936599365,33.14579936599365 0 0,0 -0.5597935125620638,-0.10201302569184488 l 2.279992033072365 -11.929881749962922" fill="#ff6209" stroke="none" /><path d="M 96.05791012581884 120.62667999033965 l -11.826269622543512 61.88003997101897 a84.0,84.0 0 0,0 -1.4140140578761677,-0.2828424133485541 l 12.886780165950636 -61.667908161007546" fill="#4dd2ff" stroke="none" /><path d="M 95.35216902796893 120.47920084513623 l -2.648421144421359 11.669432228816415 a32.9661933421267,32.9661933421267 0 0,0 -0.5507989170164973,-0.1299870446681977 l 2.848352215177744 -11.62224904050199" fill="#ff6008" stroke="none" /><path d="M 95.00130118170881 120.39639698878247 l -2.8646593075434508 11.68878754216299 a33.03470095823407,33.03470095823407 0 0,0 -0.5496261740328331,-0.13971282414271302 l 3.0648907748016625 -11.637889486185014" fill="#ff6108" stroke="none" /><path d="M 94.6519064749342 120.30758222061772 l -3.0756098780378553 11.678591667117347 a33.07679094168425,33.07679094168425 0 0,0 -0.5478439565196468,-0.14931730650329086 l 3.275635235492197 -11.624073866469912" fill="#ff6109" stroke="none" /><path d="M 94.30408787586889 120.21278271476187 l -3.2346786335105477 11.478733334778275 a32.92578990394513,32.92578990394513 0 0,0 -0.5427110718893993,-0.15797528347109666 l 3.4312497177815535 -11.42151435700466" fill="#ff5f08" stroke="none" /><path d="M 93.95794788825049 120.11202640906438 l -3.422875492729417 11.393639285375189 a32.89668410961527,32.89668410961527 0 0,0 -0.5394419676480429,-0.16712050050764501 l 3.6179580932490936 -11.333202197060896" fill="#ff5f08" stroke="none" /><path d="M 92.93061703081489 119.77432235084164 l -4.0658179315260465 11.37281637566961 a33.077741004302815,33.077741004302815 0 0,0 -0.5330412568872122,-0.19574013291972261 l 4.260448340067377 -11.301345393741167" fill="#ff6109" stroke="none" /><path d="M 92.59220618246901 119.65005319985036 l -4.205912007513331 11.15668129233548 a32.92313856640496,32.92313856640496 0 0,0 -0.5271272567521145,-0.20390414689492473 l 4.396811526758974 -11.082837257302513" fill="#ff5f08" stroke="none" /><path d="M 92.25597844496254 119.51999308798841 l -4.403324195028245 11.09925343573087 a32.94079942035309,32.94079942035309 0 0,0 -0.5238301433927345,-0.21303715903568782 l 4.5932087996114195 -11.02202902011589" fill="#ff5f08" stroke="none" /><path d="M 91.92203290615298 119.3841803445677 l -4.500782444742249 10.800239415062945 a32.70052195577527,32.70052195577527 0 0,0 -0.5163021954359187,-0.22037870600530715 l 4.685519715348599 -10.721386059398233" fill="#ff5c08" stroke="none" /><path d="M 91.59046798132341 119.24265499422711 l -4.767149708293422 10.908171458149306 a32.904365623655266,32.904365623655266 0 0,0 -0.5156374149658443,-0.23063805707108415 l 4.953700526114901 -10.824729650168369" fill="#ff5f08" stroke="none" /><path d="M 90.6110303473126 118.78422872680471 l -5.395315966791695 10.794246112467544 a33.06752598994666,33.06752598994666 0 0,0 -0.5055753543166903,-0.2581503782811228 l 5.579818542821968 -10.700037782513585" fill="#ff6109" stroke="none" /><path d="M 89.97174638481275 118.45085714620012 l -5.661075004680769 10.415740388446354 a32.854763517174604,32.854763517174604 0 0,0 -0.4932216735974353,-0.27358174811341346 l 5.839040866434307 -10.317025724899793" fill="#ff5e08" stroke="none" /><line stroke="#e1ed5e" stroke-width="0.3" x1="58.13341422392154" x2="55.67067388415222" y1="173.97424548756322" y2="178.32567169271397" /><path d="M 57.64086615596768 174.84453072859336 a86.0,86.0 0 0,1 -31.369924170532247,-30.572349798747897" fill="none" id="id20" stroke="none" /><text fill="#e1ed5e" style="font-size:6.75px; font-family:Arial;" text-anchor="middle"><textPath startOffset="22.145653131862474" xlink:href="#id20">August</textPath></text><path d="M 89.65649057296885 118.27599006163327 l -5.996352378539322 10.594980093491397 a33.17414658319396,33.17414658319396 0 0,0 -0.49320087788458755,-0.28474965961122856 l 6.177345724284309 -10.490483536603996" fill="#ff6309" stroke="none" /><path d="M 89.34428304082925 118.09573695890944 l -6.146384479401817 10.437904574018868 a33.11312899563757,33.11312899563757 0 0,0 -0.48734207144952524,-0.29263491143040227 l 6.324659307408769 -10.330855662052548" fill="#ff6209" stroke="none" /><line stroke="#e1ed5e" stroke-width="0.3" x1="26.387840678322732" x2="22.057713659400548" y1="142.50000000000003" y2="145.00000000000006" /><path d="M 25.521815274538298 143.00000000000003 a86.0,86.0 0 0,1 -11.493303480769221,-40.785679425670985" fill="none" id="id21" stroke="none" /><text fill="#e1ed5e" style="font-size:6.75px; font-family:Arial;" text-anchor="middle"><textPath startOffset="21.40746469413373" xlink:href="#id21">September</textPath></text><line stroke="#e1ed5e" stroke-width="0.3" x1="15.003131293944662" x2="10.003315487706104" y1="100.72959589197737" y2="100.7725132973878" /><path d="M 14.003168132696942 100.73817937305945 a86.0,86.0 0 0,1 10.791469493833604,-42.45332614584628" fill="none" id="id22" stroke="none" /><text fill="#e1ed5e" style="font-size:6.75px; font-family:Arial;" text-anchor="middle"><textPath startOffset="22.145653131862435" xlink:href="#id22">October</textPath></text><line stroke="#e1ed5e" stroke-width="0.3" x1="26.387840678322718" x2="22.05771365940052" y1="57.49999999999999" y2="54.99999999999999" /><path d="M 25.521815274538284 56.99999999999999 a86.0,86.0 0 0,1 29.574782752854787,-30.34633250058573" fill="none" id="id23" stroke="none" /><text fill="#e1ed5e" style="font-size:6.75px; font-family:Arial;" text-anchor="middle"><textPath startOffset="21.40746469413373" xlink:href="#id23">November</textPath></text><line stroke="#e1ed5e" stroke-width="0.3" x1="56.869717070023135" x2="54.33264160355391" y1="26.7553504044142" y2="22.446841604673864" /><path d="M 56.362301976729285 25.89364864446614 a86.0,86.0 0 0,1 42.16139366436587,-11.88097634709845" fill="none" id="id24" stroke="none" /><text fill="#e1ed5e" style="font-size:6.75px; font-family:Arial;" text-anchor="middle"><textPath startOffset="22.145653131862474" xlink:href="#id24">December</textPath></text></svg>